<svg width="24" height="23" viewBox="0 0 24 23" fill="none" xmlns="http://www.w3.org/2000/svg">
<path d="M11.7466 0.232422C5.52623 0.232422 0.46521 5.29344 0.46521 11.5138C0.46521 17.7342 5.52623 22.7952 11.7466 22.7952C17.967 22.7952 23.028 17.7342 23.028 11.5138C23.028 5.29344 17.967 0.232422 11.7466 0.232422ZM11.7466 20.9534C6.5413 20.9534 2.30707 16.7191 2.30707 11.5138C2.30707 6.30851 6.5413 2.07428 11.7466 2.07428C16.9519 2.07428 21.1861 6.30851 21.1861 11.5138C21.1861 16.7191 16.9519 20.9534 11.7466 20.9534Z" fill="black"/>
<path d="M14.7396 7.37413L9.72058 8.86706C9.42281 8.95608 9.18951 9.18939 9.10049 9.48716L7.60756 14.5062C7.51137 14.8306 7.60039 15.1816 7.83983 15.42C8.01481 15.595 8.25016 15.6901 8.49063 15.6901C8.57863 15.6901 8.66663 15.6779 8.7536 15.6523L13.7727 14.1593C14.0704 14.0703 14.3037 13.837 14.3928 13.5392L15.8857 8.52018C15.9819 8.19581 15.8929 7.84483 15.6534 7.60641C15.415 7.36697 15.064 7.27999 14.7396 7.37413ZM12.7689 12.5354L9.85872 13.4011L10.7244 10.491L13.6345 9.62529L12.7689 12.5354Z" fill="black"/>
</svg>
