<svg xmlns="http://www.w3.org/2000/svg" width="24" height="14" viewBox="0 0 24 14">
  <path fill-rule="evenodd" clip-rule="evenodd" d="M12.0008 0.216797C7.42508 0.217044 3.20277 2.68706 0.95955 6.67515C0.904481 6.77304 0.875532 6.88346 0.875488 6.99577C0.875445 7.10809 0.904309 7.21853 0.959302 7.31646C3.2003 11.3078 7.42334 13.7807 12.0006 13.7827C12.0003 13.7827 12.0008 13.7827 12.0006 13.7827C16.5763 13.781 20.7988 11.3095 23.0406 7.32042C23.0956 7.22251 23.1245 7.11208 23.1245 6.99976C23.1245 6.88744 23.0956 6.77702 23.0406 6.67911C20.7988 2.69003 16.5765 0.218776 12.0008 0.216797C12.001 0.216797 12.0006 0.216797 12.0008 0.216797ZM12.0006 1.52563C15.982 1.52712 19.6594 3.60983 21.7122 6.99989C19.6594 10.3897 15.9822 12.4722 12.0013 12.4739C8.01865 12.4724 4.34021 10.3882 2.28768 6.99618C4.3417 3.60735 8.01964 1.52588 12.0006 1.52563ZM12.0001 3.03257C9.81669 3.03257 8.03275 4.81652 8.03275 6.99989C8.03275 9.18301 9.81669 10.967 12.0001 10.967C14.1832 10.967 15.9671 9.18301 15.9671 6.99989C15.9671 4.81652 14.1832 3.03257 12.0001 3.03257ZM12.0001 4.34141C13.4758 4.34141 14.6583 5.52386 14.6583 6.99989C14.6583 8.47566 13.4758 9.65812 12.0001 9.65812C10.524 9.65812 9.34158 8.47566 9.34158 6.99989C9.34158 5.52386 10.524 4.34141 12.0001 4.34141Z"/>
</svg>
