<svg width="23" height="23" viewBox="0 0 23 23" fill="none" xmlns="http://www.w3.org/2000/svg">
<path d="M2.64367 22.6179H7.58804C8.45372 22.6179 9.1567 21.9139 9.1567 21.0492V16.8743C9.1567 15.5891 10.2025 14.5423 11.4887 14.5423C12.7749 14.5423 13.8207 15.5881 13.8207 16.8743V21.0492C13.8207 21.9149 14.5247 22.6179 15.3893 22.6179H20.3337C21.6067 22.6179 22.6422 21.5823 22.6422 20.3084V10.4278C22.6422 9.2081 22.061 8.04056 21.0858 7.30689L13.0256 1.23796C12.1211 0.555446 10.8573 0.555446 9.95177 1.23796L1.89158 7.30689C0.916414 8.04158 0.335205 9.2081 0.335205 10.4278V20.3084C0.335205 21.5823 1.37074 22.6179 2.64367 22.6179ZM2.17707 10.4278C2.17707 9.78317 2.48507 9.16614 2.99976 8.77833L11.06 2.7094C11.3127 2.51907 11.6647 2.51907 11.9174 2.7094L19.9776 8.77833C20.4923 9.16614 20.8003 9.78317 20.8003 10.4278V20.3084C20.8003 20.5662 20.5906 20.776 20.3327 20.776H15.6615V16.8743C15.6615 14.573 13.789 12.7005 11.4877 12.7005C9.18637 12.7005 7.31381 14.573 7.31381 16.8743V20.776H2.64367C2.38683 20.776 2.17604 20.5662 2.17604 20.3084L2.17707 10.4278Z" fill="black"/>
</svg>
