<svg width="24" height="21" viewBox="0 0 24 21" fill="none" xmlns="http://www.w3.org/2000/svg">
<path d="M20.7323 1.47612C19.7745 0.734255 18.3379 0.255371 17.0721 0.255371C14.4659 0.255371 12.8921 1.80253 12.0285 3.10514C11.1648 1.80253 9.59106 0.255371 6.98483 0.255371C5.71906 0.255371 4.28138 0.734255 3.32464 1.47612C1.28836 3.05295 0.368453 5.783 0.803336 8.96839C1.29245 12.5488 3.58762 17.3693 11.744 20.0093C11.8371 20.039 11.9323 20.0533 12.0274 20.0533C12.1226 20.0533 12.2188 20.038 12.3109 20.0093C20.4683 17.3693 22.7634 12.5477 23.2515 8.96839C23.6885 5.78402 22.7686 3.05295 20.7323 1.47612ZM21.4291 8.71974C21.0178 11.7363 19.0459 15.8037 12.0285 18.1634C5.01199 15.8037 3.04017 11.7363 2.6278 8.71974C2.28501 6.20458 2.9491 4.09565 4.45124 2.93221C5.07645 2.44821 6.14166 2.09723 6.98483 2.09723C10.0321 2.09723 11.1065 5.28979 11.1505 5.42179C11.2712 5.80346 11.6253 6.06133 12.0244 6.06235C12.0244 6.06235 12.0264 6.06235 12.0285 6.06235C12.4265 6.06235 12.7805 5.80449 12.9033 5.42486C12.9484 5.28877 14.0238 2.09723 17.07 2.09723C17.9122 2.09723 18.9774 2.44821 19.6036 2.93221C21.1068 4.09565 21.7709 6.20458 21.4291 8.71974Z" fill="black"/>
</svg>
