<svg width="22" height="22" viewBox="0 0 22 22" fill="none" xmlns="http://www.w3.org/2000/svg">
<path d="M4.88104 12.1689L4.88212 12.1693C7.2111 12.958 9.04558 14.7864 9.83105 17.119L4.88104 12.1689ZM4.88104 12.1689L1.4162 11L4.88043 9.83126L4.88104 12.1689ZM11 20.5838L9.83126 17.1196L17.119 12.1689C14.7864 12.9544 12.958 14.7889 12.1693 17.1179L12.1689 17.119L11 20.5838ZM20.5838 11L17.1196 12.1687L12.1689 4.88104C12.9544 7.2136 14.7889 9.04199 17.1179 9.83069L17.119 9.83105L20.5838 11ZM11 1.4162L12.1687 4.88043L4.88104 9.83105C7.2136 9.04558 9.04199 7.2111 9.83069 4.88212L9.83105 4.88104L11 1.4162Z" stroke="white" stroke-width="2"/>
</svg>
