<svg width="32" height="32" viewBox="0 0 32 32" fill="none" xmlns="http://www.w3.org/2000/svg">
<path d="M6.95439 18.131L6.95547 18.1313C10.2096 19.2334 12.7721 21.7879 13.869 25.0456L6.95439 18.131ZM6.95439 18.131L1.11713 16.1616C1.1169 16.1616 1.11668 16.1615 1.11645 16.1614C1.05981 16.1421 1.0389 16.1179 1.02797 16.1017C1.01294 16.0795 1 16.0442 1 16C1 15.9558 1.01294 15.9205 1.02797 15.8983C1.03891 15.8821 1.05986 15.8579 1.11664 15.8385C1.1168 15.8385 1.11696 15.8384 1.11713 15.8384L6.95378 13.8692L6.95439 18.131ZM15.8384 30.8829L13.8692 25.0462L25.0456 18.131C21.7879 19.2279 19.2334 21.7904 18.1313 25.0445L18.131 25.0456L16.1616 30.8829C16.1616 30.8831 16.1615 30.8834 16.1614 30.8837C16.142 30.9402 16.1179 30.9611 16.1017 30.972C16.0795 30.9871 16.0442 31 16 31C15.9558 31 15.9205 30.9871 15.8983 30.972C15.8821 30.9611 15.8578 30.9401 15.8385 30.8833C15.8384 30.8831 15.8384 30.883 15.8384 30.8829ZM30.8829 16.1616L25.0462 18.1308L18.131 6.95439C19.2279 10.2121 21.7904 12.7666 25.0445 13.8687L25.0456 13.869L30.8829 15.8384C30.8831 15.8384 30.8833 15.8385 30.8835 15.8386C30.9402 15.8579 30.9611 15.8821 30.972 15.8983C30.9871 15.9205 31 15.9558 31 16C31 16.0442 30.9871 16.0795 30.972 16.1017C30.9611 16.1179 30.9402 16.1421 30.8835 16.1614C30.8833 16.1615 30.8831 16.1616 30.8829 16.1616ZM16.1616 1.11713L18.1308 6.95378L6.95439 13.869C10.2121 12.7721 12.7666 10.2096 13.8687 6.95548L13.869 6.95439L15.8384 1.11713C15.8384 1.11697 15.8385 1.11681 15.8385 1.11665C15.8579 1.05986 15.8821 1.03891 15.8983 1.02797C15.9205 1.01294 15.9558 1 16 1C16.0442 1 16.0795 1.01294 16.1017 1.02797C16.118 1.03893 16.1422 1.05993 16.1616 1.11691C16.1616 1.11698 16.1616 1.11705 16.1616 1.11713Z" stroke="white" stroke-width="2"/>
</svg>
